<svg xmlns="http://www.w3.org/2000/svg" enable-background="new 0 0 64 64" viewBox="0 0 64 64"><rect width="3.53" height="16.02" x="5.45" y="9.05" fill="#59cbef"/><rect width="3.53" height="16.02" x="11.15" y="9.05" fill="#59cbef"/><rect width="3.53" height="16.02" x="16.86" y="9.05" fill="#59cbef"/><rect width="18.01" height="16.02" x="22.56" y="9.05" fill="#59cbef"/><polygon fill="#59cbef" points="63.79 17.06 40.57 0 40.57 34.13"/><rect width="2.37" height="10.74" x="36.76" y="39.58" fill="#59cbef" transform="rotate(-180 37.942 44.946)"/><rect width="2.37" height="10.74" x="32.94" y="39.58" fill="#59cbef" transform="rotate(-180 34.119 44.946)"/><rect width="2.37" height="10.74" x="29.11" y="39.58" fill="#59cbef" transform="rotate(-180 30.296 44.946)"/><rect width="12.07" height="10.74" x="15.59" y="39.58" fill="#59cbef" transform="rotate(-180 21.621 44.946)"/><polygon fill="#59cbef" points=".02 44.95 15.59 56.38 15.59 33.51"/><g><rect width="3.19" height="3.43" x="39.32" y="39.22" fill="#48484c" transform="rotate(-45.001 40.919 40.938)"/><path fill="#5e5e61" d="M40.77,18.47c6.16,6.16,6.16,16.15,0,22.32c-6.16,6.16-16.15,6.16-22.32,0c-6.16-6.16-6.16-16.15,0-22.32
				C24.61,12.31,34.6,12.31,40.77,18.47z"/><circle cx="29.61" cy="29.63" r="12.48" fill="#f9f9f9"/><path fill="#f0bb73" d="M47.59 41.28l-6.33 6.33c-.63.63-1.66.63-2.3 0l0 0c-.63-.63-.63-1.66 0-2.3l6.33-6.33c.63-.63 1.66-.63 2.3 0l0 0C48.23 39.62 48.23 40.65 47.59 41.28zM63.51 57.2l-6.33 6.33c-.63.63-1.66.63-2.3 0l0 0c-.63-.63-.63-1.66 0-2.3l6.33-6.33c.63-.63 1.66-.63 2.3 0l0 0C64.14 55.53 64.14 56.56 63.51 57.2z"/><rect width="8.56" height="19.26" x="46.96" y="41.63" fill="#da4765" transform="rotate(-45.001 51.237 51.256)"/></g></svg>